<svg width="32" height="32" viewBox="0 0 32 32" fill="none" xmlns="http://www.w3.org/2000/svg">
<path d="M22.1111 4.26665H25.0556C25.8365 4.26665 26.5854 4.57571 27.1376 5.1258C27.6898 5.67589 28 6.42202 28 7.19998V27.7333C28 28.5113 27.6898 29.2574 27.1376 29.8075C26.5854 30.3576 25.8365 30.6666 25.0556 30.6666H7.3889C6.60797 30.6666 5.85904 30.3576 5.30686 29.8075C4.75468 29.2574 4.44446 28.5113 4.44446 27.7333V7.19998C4.44446 6.42202 4.75468 5.67589 5.30686 5.1258C5.85904 4.57571 6.60797 4.26665 7.3889 4.26665H10.3333M21.2539 16.7797H11.1906M23.7697 13.4379H8.67477M23.7697 20.1215H8.67477M21.2539 23.4633H11.1906M11.8056 1.33331H20.6389C21.452 1.33331 22.1111 1.98996 22.1111 2.79998V5.73331C22.1111 6.54331 21.452 7.19998 20.6389 7.19998H11.8056C10.9925 7.19998 10.3333 6.54331 10.3333 5.73331V2.79998C10.3333 1.98996 10.9925 1.33331 11.8056 1.33331Z" stroke="white" stroke-width="2" stroke-linecap="round" stroke-linejoin="round"/>
</svg>
