<svg width="31" height="39" viewBox="0 0 31 39" fill="none" xmlns="http://www.w3.org/2000/svg">
<path d="M22.6 5.1H26.2C27.1548 5.1 28.0705 5.47928 28.7456 6.15441C29.4207 6.82955 29.8 7.74522 29.8 8.7V33.9C29.8 34.8548 29.4207 35.7705 28.7456 36.4456C28.0705 37.1207 27.1548 37.5 26.2 37.5H4.6C3.64522 37.5 2.72955 37.1207 2.05442 36.4456C1.37928 35.7705 1 34.8548 1 33.9V8.7C1 7.74522 1.37928 6.82955 2.05442 6.15441C2.72955 5.47928 3.64522 5.1 4.6 5.1H8.2M21.5519 20.457H9.2481M24.6279 16.3557H6.17215M24.6279 24.5582H6.17215M21.5519 28.6595H9.2481M10 1.5H20.8C21.7941 1.5 22.6 2.30589 22.6 3.3V6.9C22.6 7.89411 21.7941 8.7 20.8 8.7H10C9.00589 8.7 8.2 7.89411 8.2 6.9V3.3C8.2 2.30589 9.00589 1.5 10 1.5Z" stroke="#FAF0E6" stroke-width="2" stroke-linecap="round" stroke-linejoin="round"/>
</svg>
