<svg width="167" height="43" viewBox="0 0 167 43" fill="none" xmlns="http://www.w3.org/2000/svg">
<path d="M22.6 7.1H26.2C27.1548 7.1 28.0705 7.47928 28.7456 8.15441C29.4207 8.82955 29.8 9.74522 29.8 10.7V35.9C29.8 36.8548 29.4207 37.7705 28.7456 38.4456C28.0705 39.1207 27.1548 39.5 26.2 39.5H4.6C3.64522 39.5 2.72955 39.1207 2.05442 38.4456C1.37928 37.7705 1 36.8548 1 35.9V10.7C1 9.74522 1.37928 8.82955 2.05442 8.15441C2.72955 7.47928 3.64522 7.1 4.6 7.1H8.2M21.5519 22.457H9.2481M24.6279 18.3557H6.17215M24.6279 26.5582H6.17215M21.5519 30.6595H9.2481M10 3.5H20.8C21.7941 3.5 22.6 4.30589 22.6 5.3V8.9C22.6 9.89411 21.7941 10.7 20.8 10.7H10C9.00589 10.7 8.2 9.89411 8.2 8.9V5.3C8.2 4.30589 9.00589 3.5 10 3.5Z" stroke="#FAF0E6" stroke-width="2" stroke-linecap="round" stroke-linejoin="round"/>
<path d="M42.9719 9.78125H51.6633L61.7219 21.6172V12.9062H58.5969V9.78125H68.7531V12.9062H65.6281V34H63.2844L50.0031 18.375V30.875H53.1281V34H42.9719V30.875H46.0969V12.9062H42.9719V9.78125ZM79.6711 9.76172C80.7323 9.51432 81.8456 9.39062 83.011 9.39062C84.1763 9.39062 85.2863 9.51432 86.341 9.76172C87.4022 10.0026 88.3593 10.3411 89.2121 10.7773C90.0715 11.2135 90.8625 11.7344 91.5852 12.3398C92.3078 12.9453 92.9328 13.6159 93.4602 14.3516C93.9875 15.0807 94.4335 15.8587 94.7981 16.6855C95.1692 17.5059 95.4459 18.3555 95.6281 19.2344C95.8104 20.1068 95.9016 20.9922 95.9016 21.8906C95.9016 22.7891 95.8104 23.6777 95.6281 24.5566C95.4459 25.429 95.1692 26.2786 94.7981 27.1055C94.4335 27.9258 93.9875 28.7038 93.4602 29.4395C92.9328 30.1686 92.3078 30.8359 91.5852 31.4414C90.8625 32.0469 90.0715 32.5677 89.2121 33.0039C88.3593 33.4401 87.4022 33.7786 86.341 34.0195C85.2863 34.2669 84.1763 34.3906 83.011 34.3906C81.8456 34.3906 80.7323 34.2669 79.6711 34.0195C78.6164 33.7786 77.6594 33.4401 76.8 33.0039C75.9472 32.5677 75.1594 32.0469 74.4367 31.4414C73.7141 30.8359 73.0891 30.1686 72.5617 29.4395C72.0344 28.7038 71.5852 27.9258 71.2141 27.1055C70.8495 26.2786 70.5761 25.429 70.3938 24.5566C70.2115 23.6777 70.1203 22.7891 70.1203 21.8906C70.1203 20.9922 70.2115 20.1068 70.3938 19.2344C70.5761 18.3555 70.8495 17.5059 71.2141 16.6855C71.5852 15.8587 72.0344 15.0807 72.5617 14.3516C73.0891 13.6159 73.7141 12.9453 74.4367 12.3398C75.1594 11.7344 75.9472 11.2135 76.8 10.7773C77.6594 10.3411 78.6164 10.0026 79.6711 9.76172ZM85.1594 13.0039C84.5149 12.6784 83.7987 12.5156 83.011 12.5156C82.2232 12.5156 81.5038 12.6784 80.8528 13.0039C80.2082 13.3229 79.6581 13.7656 79.2024 14.332C78.7531 14.8984 78.3723 15.5788 78.0598 16.373C77.7473 17.1608 77.5162 18.0169 77.3664 18.9414C77.2232 19.8659 77.1516 20.849 77.1516 21.8906C77.1516 23.1927 77.2753 24.4069 77.5227 25.5332C77.7766 26.653 78.1412 27.6426 78.6164 28.502C79.0917 29.3613 79.7037 30.0384 80.4524 30.5332C81.2076 31.0215 82.0604 31.2656 83.011 31.2656C83.9615 31.2656 84.8111 31.0215 85.5598 30.5332C86.315 30.0384 86.9302 29.3613 87.4055 28.502C87.8807 27.6426 88.2421 26.653 88.4895 25.5332C88.7434 24.4069 88.8703 23.1927 88.8703 21.8906C88.8703 20.849 88.7955 19.8659 88.6457 18.9414C88.5025 18.0169 88.2746 17.1608 87.9621 16.373C87.6496 15.5788 87.2655 14.8984 86.8098 14.332C86.3606 13.7656 85.8104 13.3229 85.1594 13.0039ZM97.2688 9.78125H119.925V17.5938H116.409V16.0312C116.409 15.7122 116.38 15.3835 116.322 15.0449C116.269 14.7064 116.185 14.3711 116.068 14.0391C115.957 13.707 115.794 13.4368 115.579 13.2285C115.364 13.0137 115.12 12.9062 114.847 12.9062H111.722V30.875H114.847V34H102.347V30.875H105.472V12.9062H102.347C102.073 12.9062 101.829 13.0137 101.614 13.2285C101.4 13.4368 101.234 13.707 101.116 14.0391C101.006 14.3711 100.921 14.7064 100.863 15.0449C100.81 15.3835 100.784 15.7122 100.784 16.0312V17.5938H97.2688V9.78125ZM122.073 9.78125H143.167V17.5938H139.652V16.0312C139.652 15.7122 139.622 15.3835 139.564 15.0449C139.512 14.7064 139.427 14.3711 139.31 14.0391C139.199 13.707 139.036 13.4368 138.822 13.2285C138.607 13.0137 138.363 12.9062 138.089 12.9062H131.448V21.5H134.964V17.9844H138.089V28.1406H134.964V24.625H131.448V30.875H138.48C138.753 30.875 138.997 30.7708 139.212 30.5625C139.427 30.3477 139.59 30.0742 139.7 29.7422C139.818 29.4102 139.902 29.0749 139.954 28.7363C140.013 28.3978 140.042 28.069 140.042 27.75V26.1875H143.558V34H122.073V30.875H125.198V12.9062H122.073V9.78125ZM152.542 15.25C152.542 15.8685 152.685 16.4251 152.972 16.9199C153.258 17.4082 153.642 17.8184 154.124 18.1504C154.606 18.4824 155.159 18.7884 155.784 19.0684C156.409 19.3483 157.067 19.6152 157.757 19.8691C158.447 20.1165 159.137 20.377 159.827 20.6504C160.517 20.9173 161.175 21.2396 161.8 21.6172C162.425 21.9883 162.978 22.4082 163.46 22.877C163.942 23.3392 164.326 23.9219 164.613 24.625C164.899 25.3216 165.042 26.1029 165.042 26.9688C165.042 28.0299 164.808 29.0195 164.339 29.9375C163.87 30.8555 163.226 31.6432 162.405 32.3008C161.592 32.9518 160.602 33.4629 159.437 33.834C158.271 34.2051 157.015 34.3906 155.667 34.3906C155.146 34.3906 154.596 34.3548 154.017 34.2832C153.444 34.2181 152.835 34.1042 152.191 33.9414C151.553 33.7786 150.937 33.5801 150.345 33.3457C149.752 33.1113 149.183 32.8151 148.636 32.457C148.096 32.0924 147.624 31.6888 147.22 31.2461C146.816 30.8034 146.494 30.2826 146.253 29.6836C146.019 29.0781 145.902 28.4336 145.902 27.75C145.902 26.8841 146.204 26.1484 146.81 25.543C147.422 24.931 148.161 24.625 149.027 24.625C149.892 24.625 150.628 24.931 151.234 25.543C151.846 26.1484 152.152 26.8841 152.152 27.75C152.152 28.3099 152.015 28.8275 151.741 29.3027C151.474 29.7715 151.11 30.1458 150.648 30.4258C151.624 30.9857 152.907 31.2656 154.495 31.2656C155.908 31.2656 156.976 31.0475 157.698 30.6113C158.428 30.1751 158.792 29.4818 158.792 28.5312C158.792 27.9128 158.649 27.3594 158.363 26.8711C158.076 26.3763 157.692 25.9629 157.21 25.6309C156.728 25.2988 156.175 24.9928 155.55 24.7129C154.925 24.4329 154.267 24.1693 153.577 23.9219C152.887 23.668 152.197 23.4076 151.507 23.1406C150.817 22.8672 150.159 22.5449 149.534 22.1738C148.909 21.7962 148.356 21.3763 147.874 20.9141C147.392 20.4453 147.008 19.8626 146.722 19.166C146.435 18.4629 146.292 17.6784 146.292 16.8125C146.292 15.7448 146.504 14.7552 146.927 13.8438C147.357 12.9258 147.956 12.1413 148.724 11.4902C149.499 10.8327 150.449 10.3184 151.575 9.94727C152.702 9.57617 153.935 9.39062 155.277 9.39062C155.797 9.39062 156.338 9.42643 156.898 9.49805C157.464 9.56315 158.053 9.67708 158.665 9.83984C159.284 10.0026 159.876 10.2012 160.443 10.4355C161.009 10.6699 161.549 10.9694 162.064 11.334C162.585 11.6921 163.034 12.0924 163.411 12.5352C163.789 12.9779 164.088 13.4987 164.31 14.0977C164.538 14.6966 164.652 15.3411 164.652 16.0312C164.652 16.8971 164.346 17.6361 163.734 18.248C163.128 18.8535 162.392 19.1562 161.527 19.1562C160.661 19.1562 159.922 18.8535 159.31 18.248C158.704 17.6361 158.402 16.8971 158.402 16.0312C158.402 15.4518 158.548 14.9212 158.841 14.4395C159.134 13.9512 159.521 13.5703 160.003 13.2969C159.137 12.776 157.952 12.5156 156.448 12.5156C155.075 12.5156 154.079 12.7305 153.46 13.1602C152.848 13.5833 152.542 14.2799 152.542 15.25Z" fill="#FAF0E6"/>
</svg>
